<svg xmlns="http://www.w3.org/2000/svg" width="1600" height="1120" viewBox="0 0 1600 1120">
<rect width="100%" height="100%" fill="#f7f9fb"/>
<style>text{font-family:Arial,"Microsoft YaHei",sans-serif;fill:#17212b}.title{font-size:34px;font-weight:700}.subtitle{font-size:18px;fill:#52616f}.panel{font-size:24px;font-weight:700}.axis{font-size:16px;fill:#52616f}.metric{font-size:17px;fill:#293845}.legend{font-size:17px;font-weight:700}</style>
<text x="800" y="54" text-anchor="middle" class="title">Qwen3.5-0.8B Loss Alignment</text>
<text x="800" y="88" text-anchor="middle" class="subtitle">Formal 100-step dual-Ascend run · AscendC vs Triton · identical training configuration</text>
<rect x="80" y="115" width="1440" height="430" rx="6" fill="#fff" stroke="#cbd5df"/>
<rect x="80" y="610" width="1440" height="430" rx="6" fill="#fff" stroke="#cbd5df"/>
<text x="125" y="145" class="panel">Training loss by iteration</text>
<text x="125" y="640" class="panel">Per-step absolute loss difference</text>
<line x1="125" y1="485.0" x2="1485" y2="485.0" stroke="#d9e1e8" stroke-width="1"/>
<text x="108" y="491.0" text-anchor="end" class="axis">1.012</text>
<line x1="125" y1="980.0" x2="1485" y2="980.0" stroke="#d9e1e8" stroke-width="1"/>
<text x="108" y="986.0" text-anchor="end" class="axis">0.0000</text>
<line x1="125" y1="419.0" x2="1485" y2="419.0" stroke="#d9e1e8" stroke-width="1"/>
<text x="108" y="425.0" text-anchor="end" class="axis">1.215</text>
<line x1="125" y1="914.0" x2="1485" y2="914.0" stroke="#d9e1e8" stroke-width="1"/>
<text x="108" y="920.0" text-anchor="end" class="axis">0.0007</text>
<line x1="125" y1="353.0" x2="1485" y2="353.0" stroke="#d9e1e8" stroke-width="1"/>
<text x="108" y="359.0" text-anchor="end" class="axis">1.417</text>
<line x1="125" y1="848.0" x2="1485" y2="848.0" stroke="#d9e1e8" stroke-width="1"/>
<text x="108" y="854.0" text-anchor="end" class="axis">0.0014</text>
<line x1="125" y1="287.0" x2="1485" y2="287.0" stroke="#d9e1e8" stroke-width="1"/>
<text x="108" y="293.0" text-anchor="end" class="axis">1.620</text>
<line x1="125" y1="782.0" x2="1485" y2="782.0" stroke="#d9e1e8" stroke-width="1"/>
<text x="108" y="788.0" text-anchor="end" class="axis">0.0021</text>
<line x1="125" y1="221.0" x2="1485" y2="221.0" stroke="#d9e1e8" stroke-width="1"/>
<text x="108" y="227.0" text-anchor="end" class="axis">1.822</text>
<line x1="125" y1="716.0" x2="1485" y2="716.0" stroke="#d9e1e8" stroke-width="1"/>
<text x="108" y="722.0" text-anchor="end" class="axis">0.0028</text>
<line x1="125" y1="155.0" x2="1485" y2="155.0" stroke="#d9e1e8" stroke-width="1"/>
<text x="108" y="161.0" text-anchor="end" class="axis">2.024</text>
<line x1="125" y1="650.0" x2="1485" y2="650.0" stroke="#d9e1e8" stroke-width="1"/>
<text x="108" y="656.0" text-anchor="end" class="axis">0.0035</text>
<line x1="125.0" y1="155" x2="125.0" y2="485" stroke="#edf1f4" stroke-width="1"/>
<line x1="125.0" y1="650" x2="125.0" y2="980" stroke="#edf1f4" stroke-width="1"/>
<text x="125.0" y="510" text-anchor="middle" class="axis">1</text>
<text x="125.0" y="1005" text-anchor="middle" class="axis">1</text>
<line x1="386.010101010101" y1="155" x2="386.010101010101" y2="485" stroke="#edf1f4" stroke-width="1"/>
<line x1="386.010101010101" y1="650" x2="386.010101010101" y2="980" stroke="#edf1f4" stroke-width="1"/>
<text x="386.0" y="510" text-anchor="middle" class="axis">20</text>
<text x="386.0" y="1005" text-anchor="middle" class="axis">20</text>
<line x1="660.7575757575758" y1="155" x2="660.7575757575758" y2="485" stroke="#edf1f4" stroke-width="1"/>
<line x1="660.7575757575758" y1="650" x2="660.7575757575758" y2="980" stroke="#edf1f4" stroke-width="1"/>
<text x="660.8" y="510" text-anchor="middle" class="axis">40</text>
<text x="660.8" y="1005" text-anchor="middle" class="axis">40</text>
<line x1="935.5050505050505" y1="155" x2="935.5050505050505" y2="485" stroke="#edf1f4" stroke-width="1"/>
<line x1="935.5050505050505" y1="650" x2="935.5050505050505" y2="980" stroke="#edf1f4" stroke-width="1"/>
<text x="935.5" y="510" text-anchor="middle" class="axis">60</text>
<text x="935.5" y="1005" text-anchor="middle" class="axis">60</text>
<line x1="1210.2525252525254" y1="155" x2="1210.2525252525254" y2="485" stroke="#edf1f4" stroke-width="1"/>
<line x1="1210.2525252525254" y1="650" x2="1210.2525252525254" y2="980" stroke="#edf1f4" stroke-width="1"/>
<text x="1210.3" y="510" text-anchor="middle" class="axis">80</text>
<text x="1210.3" y="1005" text-anchor="middle" class="axis">80</text>
<line x1="1485.0" y1="155" x2="1485.0" y2="485" stroke="#edf1f4" stroke-width="1"/>
<line x1="1485.0" y1="650" x2="1485.0" y2="980" stroke="#edf1f4" stroke-width="1"/>
<text x="1485.0" y="510" text-anchor="middle" class="axis">100</text>
<text x="1485.0" y="1005" text-anchor="middle" class="axis">100</text>
<line x1="125" y1="155" x2="125" y2="485" stroke="#657786" stroke-width="1.5"/>
<line x1="125" y1="485" x2="1485" y2="485" stroke="#657786" stroke-width="1.5"/>
<line x1="125" y1="650" x2="125" y2="980" stroke="#657786" stroke-width="1.5"/>
<line x1="125" y1="980" x2="1485" y2="980" stroke="#657786" stroke-width="1.5"/>
<polyline points="125.00,186.94 138.74,231.89 152.47,232.72 166.21,323.26 179.95,355.66 193.69,326.35 207.42,360.02 221.16,337.68 234.90,401.84 248.64,357.08 262.37,348.00 276.11,357.63 289.85,337.26 303.59,335.12 317.32,352.15 331.06,348.85 344.80,355.46 358.54,365.35 372.27,338.83 386.01,374.88 399.75,405.96 413.48,348.79 427.22,332.88 440.96,331.55 454.70,351.69 468.43,386.96 482.17,333.46 495.91,373.77 509.65,341.55 523.38,395.76 537.12,384.47 550.86,346.50 564.60,398.05 578.33,393.21 592.07,354.76 605.81,355.61 619.55,392.59 633.28,335.42 647.02,373.77 660.76,320.56 674.49,357.85 688.23,394.96 701.97,383.90 715.71,372.13 729.44,394.16 743.18,381.13 756.92,361.52 770.66,335.16 784.39,400.07 798.13,396.17 811.87,371.50 825.61,307.25 839.34,389.98 853.08,398.08 866.82,390.65 880.56,357.38 894.29,361.16 908.03,365.59 921.77,419.79 935.51,401.05 949.24,390.89 962.98,431.68 976.72,356.54 990.45,379.60 1004.19,391.92 1017.93,353.44 1031.67,393.13 1045.40,323.58 1059.14,350.26 1072.88,380.66 1086.62,398.29 1100.35,358.26 1114.09,365.64 1127.83,382.34 1141.57,369.56 1155.30,378.53 1169.04,357.78 1182.78,352.43 1196.52,342.78 1210.25,399.10 1223.99,392.74 1237.73,399.01 1251.46,402.97 1265.20,412.27 1278.94,385.16 1292.68,371.38 1306.41,369.16 1320.15,397.45 1333.89,452.91 1347.63,390.46 1361.36,374.20 1375.10,394.42 1388.84,423.45 1402.58,345.17 1416.31,387.06 1430.05,383.81 1443.79,381.50 1457.53,389.03 1471.26,370.07 1485.00,342.68" fill="none" stroke="#176b4d" stroke-width="4" stroke-linejoin="round"/>
<polyline points="125.00,187.52 138.74,231.02 152.47,233.28 166.21,324.22 179.95,355.59 193.69,326.57 207.42,360.70 221.16,337.29 234.90,401.64 248.64,356.45 262.37,347.78 276.11,358.17 289.85,337.46 303.59,335.40 317.32,352.51 331.06,348.59 344.80,354.76 358.54,365.12 372.27,338.63 386.01,375.25 399.75,405.56 413.48,348.46 427.22,332.70 440.96,331.61 454.70,352.28 468.43,387.11 482.17,333.56 495.91,374.04 509.65,341.99 523.38,396.23 537.12,384.94 550.86,346.74 564.60,398.43 578.33,393.47 592.07,354.87 605.81,356.33 619.55,393.22 633.28,335.76 647.02,373.87 660.76,320.85 674.49,357.73 688.23,395.07 701.97,383.90 715.71,371.68 729.44,394.68 743.18,381.70 756.92,362.12 770.66,335.48 784.39,400.69 798.13,396.04 811.87,371.50 825.61,307.28 839.34,390.24 853.08,397.95 866.82,391.28 880.56,357.53 894.29,361.15 908.03,365.73 921.77,419.50 935.51,401.06 949.24,391.20 962.98,431.51 976.72,356.70 990.45,380.32 1004.19,392.32 1017.93,353.21 1031.67,393.05 1045.40,322.68 1059.14,350.26 1072.88,379.96 1086.62,398.57 1100.35,358.49 1114.09,365.56 1127.83,382.21 1141.57,369.67 1155.30,378.78 1169.04,357.65 1182.78,352.44 1196.52,342.69 1210.25,399.07 1223.99,392.68 1237.73,399.67 1251.46,402.95 1265.20,412.45 1278.94,385.31 1292.68,371.52 1306.41,369.04 1320.15,397.42 1333.89,453.06 1347.63,390.81 1361.36,373.90 1375.10,394.67 1388.84,423.66 1402.58,345.17 1416.31,386.97 1430.05,383.96 1443.79,381.79 1457.53,389.20 1471.26,370.33 1485.00,342.75" fill="none" stroke="#c4553d" stroke-width="3" stroke-linejoin="round"/>
<polyline points="125.00,810.35 138.74,725.81 152.47,815.27 166.21,700.34 179.95,958.32 193.69,915.24 207.42,783.56 221.16,865.73 234.90,921.97 248.64,795.11 262.37,915.24 276.11,823.79 289.85,920.07 303.59,899.81 317.32,875.29 331.06,905.40 344.80,774.75 358.54,911.93 372.27,922.25 386.01,873.21 399.75,864.59 413.48,883.15 427.22,929.82 440.96,964.66 454.70,809.69 468.43,935.13 482.17,950.65 495.91,902.46 509.65,851.15 523.38,843.48 537.12,843.48 550.86,912.50 564.60,868.86 578.33,904.83 592.07,948.66 605.81,771.34 619.55,795.96 633.28,882.87 647.02,948.47 660.76,895.27 674.49,947.72 688.23,950.18 701.97,979.81 715.71,849.07 729.44,828.34 743.18,815.08 756.92,807.60 770.66,888.36 784.39,802.40 798.13,942.51 811.87,979.15 825.61,968.92 839.34,902.37 853.08,942.13 866.82,797.00 880.56,936.73 894.29,976.97 908.03,937.40 921.77,896.97 935.51,976.21 949.24,890.82 962.98,932.19 976.72,933.23 990.45,771.91 1004.19,864.69 1017.93,914.11 1031.67,956.14 1045.40,717.76 1059.14,979.43 1072.88,777.21 1086.62,899.06 1100.35,913.16 1114.09,954.34 1127.83,940.43 1141.57,946.58 1155.30,907.39 1169.04,943.36 1182.78,977.92 1196.52,955.67 1210.25,972.05 1223.99,963.81 1237.73,790.09 1251.46,974.32 1265.20,926.32 1278.94,934.65 1292.68,936.73 1306.41,947.15 1320.15,970.06 1333.89,935.60 1347.63,880.59 1361.36,893.19 1375.10,907.58 1388.84,918.75 1402.58,978.39 1416.31,954.34 1430.05,938.25 1443.79,894.98 1457.53,929.82 1471.26,903.22 1485.00,959.93" fill="none" stroke="#326a8b" stroke-width="3" stroke-linejoin="round"/>
<line x1="1120" y1="135" x2="1165" y2="135" stroke="#176b4d" stroke-width="4"/>
<text x="1178" y="141" class="legend">AscendC</text>
<line x1="1305" y1="135" x2="1350" y2="135" stroke="#c4553d" stroke-width="4"/>
<text x="1363" y="141" class="legend">Triton</text>
<text x="805" y="535" text-anchor="middle" class="axis">Training iteration</text>
<text x="805" y="1030" text-anchor="middle" class="axis">Training iteration</text>
<text x="35" y="320" text-anchor="middle" class="axis" transform="rotate(-90 35 320)">Loss</text>
<text x="35" y="815" text-anchor="middle" class="axis" transform="rotate(-90 35 815)">Absolute difference</text>
<text x="125" y="1080" class="metric">Mean abs diff: 0.000884   ·   Max abs diff: 0.002954 (step 4)   ·   Step 100 diff: 0.000212</text>
<text x="1485" y="1080" text-anchor="end" class="metric">Mean relative abs: 0.0638%   ·   Max relative abs: 0.1962%</text>
<text x="800" y="1105" text-anchor="middle" class="axis">No acceptance threshold is drawn; final precision acceptance follows the competition evaluator.</text>
</svg>